{"title":"Taylor Swift- White Horse HD 720p ~Abhinav4u~","uid":7125521,"size":162145415,"categoryP":"video","categoryS":"music_videos","magnet":"?xt=urn:btih:095b57c2c9d52b4b252328db9dbdbaabd4a74cbc&amp;dn=Taylor+Swift-+White+Horse+HD+720p+%7EAbhinav4u%7E&amp;tr=udp%3A%2F%2Ftracker.openbittorrent.com%3A80&amp;tr=udp%3A%2F%2Fopen.demonii.com%3A1337&amp;tr=udp%3A%2F%2Ftracker.coppersurfer.tk%3A6969&amp;tr=udp%3A%2F%2Fexodus.desync.com%3A6969","seeders":2,"leechers":0,"uploader":"Abhinav4u","files":1,"time":1332522415,"description":"INFO:-\n\nFormat                           : Matroska\nFile size                        : 155 MiB\nDuration                         : 4mn 3s\nOverall bit rate                 : 5 323 Kbps\nMovie name                       : White Horse 720p By Abhinav4u\nEncoded date                     : UTC 2012-03-17 07:00:44\nWriting application              : mkvmerge v4.5.0 ('Speed of Light') built on Feb  1 2011 02:10:32\nWriting library                  : libebml v1.2.0 + libmatroska v1.1.0\n\nVideo\nID                               : 1\nFormat                           : MPEG-4 Visual\nCodec ID                         : V_MPEG4/ISO/ASP\nDuration                         : 4mn 3s\nBit rate                         : 4 897 Kbps\nWidth                            : 1 280 pixels\nHeight                           : 720 pixels\nDisplay aspect ratio             : 16:9\nFrame rate mode                  : Constant\nFrame rate                       : 29.970 fps\nColor space                      : YUV\nChroma subsampling               : 4:2:0\nBit depth                        : 8 bits\nScan type                        : Progressive\nCompression mode                 : Lossy\nBits/(Pixel*Frame)               : 0.177\nStream size                      : 142 MiB (92%)\nTitle                            : ~Abhinav4u~\nWriting library                  : Lavc51.54.0\n\nAudio\nID                               : 2\nFormat                           : AC-3\nFormat/Info                      : Audio Coding 3\nMode extension                   : CM (complete main)\nMuxing mode                      : Header stripping\nCodec ID                         : A_AC3\nDuration                         : 4mn 3s\nBit rate mode                    : Constant\nBit rate                         : 320 Kbps\nChannel(s)                       : 6 channels\nChannel positions                : Front: L C R, Side: L R, LFE\nSampling rate                    : 48.0 KHz\nBit depth                        : 16 bits\nCompression mode                 : Lossy\nStream size                      : 9.30 MiB (6%)\nTitle                            : 6CH By Abhinav4u\n\n\n &lt;a href=&quot;\nhttp://i.minus.com/iMCMrD1mpVPyP.png&quot; rel=&quot;nofollow&quot; target=&quot;_NEW&quot;&gt;\nhttp://i.minus.com/iMCMrD1mpVPyP.png&lt;/a&gt; &lt;a href=&quot;\nhttp://i.minus.com/iZHnH9hGC3Ps2.png&quot; rel=&quot;nofollow&quot; target=&quot;_NEW&quot;&gt;\nhttp://i.minus.com/iZHnH9hGC3Ps2.png&lt;/a&gt; &lt;a href=&quot;\nhttp://i.minus.com/ie17h7msnF38Z.png&quot; rel=&quot;nofollow&quot; target=&quot;_NEW&quot;&gt;\nhttp://i.minus.com/ie17h7msnF38Z.png&lt;/a&gt; &lt;a href=&quot;\nhttp://i.minus.com/iD4k8Jg2Lpikt.png&quot; rel=&quot;nofollow&quot; target=&quot;_NEW&quot;&gt;\nhttp://i.minus.com/iD4k8Jg2Lpikt.png&lt;/a&gt; &lt;a href=&quot;\nhttp://i.minus.com/iR0Kz6ewVMsdK.png&quot; rel=&quot;nofollow&quot; target=&quot;_NEW&quot;&gt;\nhttp://i.minus.com/iR0Kz6ewVMsdK.png&lt;/a&gt;\n\n\nRegards::Abhinav4u\nCredits::Palladia HDTV\n","torrent":{"xt":"urn:btih:095b57c2c9d52b4b252328db9dbdbaabd4a74cbc","amp;dn":"Taylor+Swift-+White+Horse+HD+720p+%7EAbhinav4u%7E","amp;tr":["udp%3A%2F%2Ftracker.openbittorrent.com%3A80","udp%3A%2F%2Fopen.demonii.com%3A1337","udp%3A%2F%2Ftracker.coppersurfer.tk%3A6969","udp%3A%2F%2Fexodus.desync.com%3A6969"],"infoHash":"095b57c2c9d52b4b252328db9dbdbaabd4a74cbc","infoHashBuffer":{"type":"Buffer","data":[9,91,87,194,201,213,43,75,37,35,40,219,157,189,186,171,212,167,76,188]},"announce":[],"urlList":[]}}